<svg id="SQ" xmlns="http://www.w3.org/2000/svg" xmlns:xlink="http://www.w3.org/1999/xlink" width="73.381" height="86.342" viewBox="0 0 73.381 86.342">
  <defs>
    <clipPath id="clip-path">
      <rect id="Rectangle_38025" data-name="Rectangle 38025" width="73.381" height="86.342" transform="translate(0 0)" fill="none"/>
    </clipPath>
  </defs>
  <g id="Group_98890" data-name="Group 98890" transform="translate(0 0)" clip-path="url(#clip-path)">
    <path id="Path_63161" data-name="Path 63161" d="M36.039,48.55l-.765-4.05a15.123,15.123,0,0,1-4.253-2.317,11.317,11.317,0,0,1-2.946-3.4,8.268,8.268,0,0,1-1.08-4.1,8.353,8.353,0,0,1,1.17-4.409,8.139,8.139,0,0,1,3.285-3.038,10.78,10.78,0,0,1,5.039-1.1,11.64,11.64,0,0,1,4.163.743,12.243,12.243,0,0,1,3.6,2.136A15.8,15.8,0,0,1,47.2,32.394l-3.1,2.7a13.547,13.547,0,0,0-2.048-2.475,7.93,7.93,0,0,0-2.407-1.575,7.2,7.2,0,0,0-2.79-.54,5.622,5.622,0,0,0-2.7.585,4.026,4.026,0,0,0-1.642,1.6,4.788,4.788,0,0,0-.563,2.363,5.219,5.219,0,0,0,.517,2.317,5.828,5.828,0,0,0,1.6,1.936,11.869,11.869,0,0,0,2.722,1.6,26.222,26.222,0,0,0,3.893,1.305L39.5,48.55Zm4.231,9.112a2.97,2.97,0,0,1-2.3.878,2.893,2.893,0,0,1-2.25-.945,3.483,3.483,0,0,1-.855-2.43,3.546,3.546,0,0,1,.811-2.5,2.964,2.964,0,0,1,2.294-.877,2.886,2.886,0,0,1,2.25.945,3.483,3.483,0,0,1,.855,2.43,3.552,3.552,0,0,1-.809,2.5" fill="#fff"/>
    <path id="Path_63162" data-name="Path 63162" d="M66.79,8.62,39.351.38a9.5,9.5,0,0,0-5.32,0L6.561,8.62A9.148,9.148,0,0,0,0,17.33V40.2a47.72,47.72,0,0,0,34.03,45.76,9.732,9.732,0,0,0,2.67.38h.01a8.854,8.854,0,0,0,2.65-.38,47.709,47.709,0,0,0,34.02-45.75V17.33A9.159,9.159,0,0,0,66.79,8.62M68.6,40.36a42.918,42.918,0,0,1-30.61,41.16,4.333,4.333,0,0,1-1.28.2,4.46,4.46,0,0,1-1.3-.2A42.9,42.9,0,0,1,4.811,40.2V17.33a4.428,4.428,0,0,1,3.18-4.27l27.55-8.42a4.98,4.98,0,0,1,1.22,0,4.6,4.6,0,0,1,1.219.18l27.45,8.24A4.432,4.432,0,0,1,68.6,17.33Z" fill="#fff"/>
  </g>
</svg>
