<svg id="SQ_Gray" xmlns="http://www.w3.org/2000/svg" xmlns:xlink="http://www.w3.org/1999/xlink" width="37.327" height="43.92" viewBox="0 0 37.327 43.92">
  <defs>
    <clipPath id="clip-path">
      <rect id="Rectangle_38025" data-name="Rectangle 38025" width="37.327" height="43.92" fill="#4f717e"/>
    </clipPath>
  </defs>
  <g id="Group_98890" data-name="Group 98890" clip-path="url(#clip-path)">
    <path id="Path_63161" data-name="Path 63161" d="M31.6,37.539l-.389-2.06A7.693,7.693,0,0,1,29.043,34.3a5.757,5.757,0,0,1-1.5-1.728A4.206,4.206,0,0,1,27,30.489a4.249,4.249,0,0,1,.6-2.243A4.14,4.14,0,0,1,29.261,26.7a5.484,5.484,0,0,1,2.563-.561,5.921,5.921,0,0,1,2.118.378A6.228,6.228,0,0,1,35.773,27.6a8.039,8.039,0,0,1,1.5,1.717L35.693,30.7a6.891,6.891,0,0,0-1.042-1.259,4.034,4.034,0,0,0-1.224-.8,3.662,3.662,0,0,0-1.419-.275,2.86,2.86,0,0,0-1.373.3,2.048,2.048,0,0,0-.835.812,2.436,2.436,0,0,0-.286,1.2,2.655,2.655,0,0,0,.263,1.179,2.964,2.964,0,0,0,.813.985,6.037,6.037,0,0,0,1.385.812,13.338,13.338,0,0,0,1.98.664l-.6,3.228Zm2.152,4.635a1.511,1.511,0,0,1-1.168.447,1.471,1.471,0,0,1-1.145-.481A1.772,1.772,0,0,1,31,40.9a1.8,1.8,0,0,1,.413-1.271,1.507,1.507,0,0,1,1.167-.446,1.468,1.468,0,0,1,1.145.481,1.772,1.772,0,0,1,.435,1.236,1.807,1.807,0,0,1-.412,1.27" transform="translate(-13.263 -12.843)" fill="#4f717e"/>
    <path id="Path_63162" data-name="Path 63162" d="M33.975,4.385,20.017.193a4.832,4.832,0,0,0-2.706,0L3.338,4.385A4.653,4.653,0,0,0,0,8.815V20.449a24.274,24.274,0,0,0,17.31,23.277,4.95,4.95,0,0,0,1.358.193h.005a4.5,4.5,0,0,0,1.348-.193A24.268,24.268,0,0,0,37.327,20.454V8.815a4.659,4.659,0,0,0-3.353-4.431M34.9,20.53A21.831,21.831,0,0,1,19.325,41.467a2.2,2.2,0,0,1-.651.1,2.268,2.268,0,0,1-.661-.1A21.821,21.821,0,0,1,2.447,20.449V8.815A2.252,2.252,0,0,1,4.065,6.643L18.079,2.36a2.533,2.533,0,0,1,.621,0,2.342,2.342,0,0,1,.62.092L33.283,6.643A2.254,2.254,0,0,1,34.9,8.815Z" transform="translate(0 0)" fill="#4f717e"/>
  </g>
</svg>
