<?xml version="1.0" encoding="UTF-8"?>
<svg id="MOJ_Logo" data-name="MOJ Logo" xmlns="http://www.w3.org/2000/svg" xmlns:xlink="http://www.w3.org/1999/xlink" version="1.1" viewBox="0 0 177 177">
  <defs>
    <style>
      .cls-1, .cls-2, .cls-3, .cls-4, .cls-5, .cls-6, .cls-7 {
        stroke-width: 0px;
      }

      .cls-1, .cls-3, .cls-5, .cls-6, .cls-7 {
        fill-rule: evenodd;
      }

      .cls-1, .cls-4 {
        fill: #c79c55;
      }

      .cls-8 {
        clip-path: url(#clippath);
      }

      .cls-2 {
        fill: none;
      }

      .cls-3 {
        fill: #316533;
      }

      .cls-9 {
        clip-path: url(#clippath-1);
      }

      .cls-10 {
        clip-path: url(#clippath-2);
      }

      .cls-5 {
        fill: #040504;
      }

      .cls-6 {
        fill: #ac1822;
      }

      .cls-7 {
        fill: #fff;
      }
    </style>
    <clipPath id="clippath">
      <rect class="cls-2" x="8.9" width="159.3" height="177"/>
    </clipPath>
    <clipPath id="clippath-1">
      <rect class="cls-2" x="11.1" y="13.6" width="157.2" height="115.5"/>
    </clipPath>
    <clipPath id="clippath-2">
      <rect class="cls-2" x="-.9" y="-5" width="178.5" height="148.3"/>
    </clipPath>
  </defs>
  <g class="cls-8">
    <g id="Group_97959" data-name="Group 97959">
      <path id="Path_61901" data-name="Path 61901" class="cls-4" d="M135.9,77.2h0c-.3,0-.6-.1-.9-.1-1.1,0-2.3,0-3.4,0-.7,0-.9-.2-1.1-.8-.4-1.2-.8-2.3-1.3-3.5-.8-2.2-1.7-4.3-2.5-6.5-.5-1.3-1.1-2.7-1.6-4-.4-1.1-.8-2.2-1.2-3.2-.8-2.2-1.7-4.3-2.6-6.5-.2-.5-.3-1-.5-1.4.6-.6,1.1-1.1,1.5-1.7.5-.5.7-1.2.5-1.9-.2-.5-.3-1.1-.3-1.6,0-1-.5-1.9-1.4-2.4-.2,0-.4-.2-.6-.3-.9-.6-2-.7-3-.3-1,.3-1.7,1.3-1.7,2.4,0,.7,0,1.3.1,2-.2,0-.3.1-.5.1-1.8.1-3.6,0-5.3-.2-1.5-.4-3-.9-4.4-1.6-1.4-.7-2.9-1.3-4.5-1.6-.7,0-1.3-.2-2-.4-1.1-.3-2.2-.3-3.4-.1-.9,0-1.8.3-2.7.4.2-.7.3-1.3.4-1.8.2-1.1.4-2.2.5-3.2,0-1.4-.2-2.9-.6-4.2-.3-1.7-1.3-3.1-2.8-4.1-.4-.2-.6-.6-.5-1,0-.7,0-1.4,0-2.1,0-.4.1-.8.4-1,.8-.9.9-2.3.2-3.3-.3-.3-.6-.5-.9-.7-.4-.3-.9-.5-1.3-.7-1.3-.2-2.6.6-2.9,2-.1.8.1,1.6.7,2.2.3.2.4.6.5.9,0,.7,0,1.5,0,2.2,0,.4-.2.8-.5,1-1.9,1.1-2.6,3-3.1,4.9-.3,1.4-.4,2.9-.2,4.3,0,1.6.4,3.1,1.1,4.5,0,.2.2.5.2.8-.3,0-.5,0-.8-.1-.9-.4-1.9-.6-2.9-.6-.9,0-1.8-.3-2.7-.3-1,0-2,.1-2.9.4-1.5.4-2.9,1-4.3,1.6-1.2.4-2.3,1-3.4,1.4-1.9.6-3.9.8-5.9.7-.2,0-.4,0-.6-.2,0-.2,0-.3.1-.4.4-1.3-.1-2.6-1.2-3.4-.3-.2-.7-.4-1-.6-1.1-.5-2.3-.4-3.3.3-.8.6-1.2,1.7-1,2.7,0,.3,0,.6-.3.8-.2.2-.3.4-.2.6.1.7.4,1.3.9,1.9.5.5,1,1,1.6,1.4,0,0,0,0,0,0,.3.2.3.6.2.9,0,0,0,0,0,0,0,0,0,0,0,0-.4.8-.7,1.6-1,2.4-1,2.7-2.1,5.3-3.1,8-.9,2.2-1.8,4.4-2.7,6.6-1,2.4-1.9,4.9-2.9,7.3-.5,1.1-.3,1-1.4,1-1.4,0-2.9,0-4.3,0-.8,0-.9.2-.8,1,.2.8.6,1.5,1.2,2.1,1.2,1.3,2.7,2.5,4.3,3.3,1.6.9,3.4,1.5,5.2,1.9.7.2,1.4.2,2,.4,1.2.3,2.4.4,3.6.5,1.9.3,3.8-.3,5.7-.3,0,0,0,0,0,0,1.2-.3,2.5-.6,3.7-1,1.8-.5,3.6-1.3,5.2-2.3,1.2-.7,2.2-1.7,2.9-2.8.3-.5.5-.9.7-1.4.2-.5,0-.8-.4-.9-.5-.2-1-.3-1.5-.3-1.1,0-2.1,0-3.2,0-.5,0-1-.3-1.1-.8-.4-1.2-.9-2.5-1.4-3.7-.2-.6-.5-1.2-.7-1.9-.6-1.5-1.1-2.9-1.7-4.4-.8-2-1.5-4-2.3-6.1-.7-1.9-1.5-3.7-2.2-5.5-.4-.9-.7-1.8-1.1-2.9.4,0,.6,0,.9,0,2.7,0,5.3-.2,7.9-.8.7-.1,1.3-.3,2-.5,1-.2,2-.5,2.9-.7.7-.2,1.4-.3,2.1-.4.9-.2,1.8-.4,2.8-.6,1.6-.1,3.2-.2,4.8-.2,1.6,0,3.2.3,4.7.9.9.4,1.9.4,2.9,0,.9-.3,1.7-.6,2.6-.8,2.8-.2,5.6-.1,8.4.3,0,0,.2,0,.2,0,.7.2,1.4.4,2.1.5.7.1,1.3.2,2,.4,1.8.5,3.6.9,5.4,1.2,2,.4,3.9.5,5.9.4.2,0,.4,0,.8,0,0,.2,0,.4-.1.6-.3.8-.6,1.6-.9,2.4-.5,1.3-1,2.5-1.5,3.8-.8,1.9-1.6,3.7-2.3,5.6-.6,1.5-1.2,3.1-1.8,4.6-.8,2.1-1.9,4.2-2.6,6.4-.1.3-.2.6-.4.9-.2.5-.7.9-1.3.8-1.4,0-2.9,0-4.3,0-1,0-1.2.3-.8,1.2.3.6.6,1.1,1,1.7,1,1.3,2.3,2.3,3.8,3,1.1.6,2.2,1.1,3.3,1.6.6.3,1.3.5,1.9.7.8.2,1.6.3,2.4.5,1.7.3,3.3.5,5,.5.9,0,1.7-.2,2.6-.2,1.5,0,3-.3,4.4-.7,1.4-.4,2.9-.8,4.2-1.4,1.5-.7,2.9-1.6,4.2-2.7.8-.7,1.4-1.6,1.7-2.6.3-.4.1-1-.3-1.3-.1,0-.2,0-.3-.1M57.4,56.1c0,6.5,0,12.9,0,19.4,0,1.9,0,1.7-1.7,1.7-2,0-4,0-5.9,0-.3,0-.7,0-1.1,0,0-.3,0-.5.1-.8,1.1-2.8,2.3-5.7,3.4-8.5.8-2,1.6-4,2.4-6,.8-2,1.6-4.1,2.4-6.1,0-.1.2-.2.3-.3h.2c0,0,0,.7,0,.7ZM60.1,57.4c.5,1.2.9,2.4,1.4,3.6.6,1.7,1.2,3.3,1.9,4.9.5,1.3,1.1,2.5,1.5,3.7.4.9.6,1.9,1,2.8.6,1.5,1.2,2.9,1.8,4.5-.4,0-.7.1-1,.1-2.3,0-4.5,0-6.8,0-1,0-1,0-1-1.1,0-5.6,0-11.3,0-16.9,0-1,0-2.1,0-3.1,0-.3,0-.6,0-.9h.2c.3.8.7,1.5,1,2.3M118.9,76.2h0c0,.8-.2.9-.9.9-1.8,0-3.5,0-5.3,0s-1.4,0-2,0c-.2,0-.4,0-.6-.1.2-.5.3-.9.5-1.4.8-1.9,1.5-3.9,2.3-5.8.9-2.2,1.8-4.4,2.7-6.6.5-1.2.9-2.5,1.4-3.8.5-1.3,1.1-2.7,1.7-4h.2c0,.4,0,.7,0,1,0,6.3,0,12.5,0,18.8,0,.3,0,.7,0,1M128.8,77.1c-.2,0-.4,0-.6,0h-6.5c-.2,0-.3,0-.5,0-.4,0-.6-.2-.6-.6,0-.1,0-.3,0-.4,0-6.6,0-13.2,0-19.9,0-.3,0-.6,0-.9h.2c.7,1.8,1.4,3.6,2.1,5.3.7,1.8,1.4,3.6,2.1,5.4.6,1.5,1.1,3,1.6,4.4.5,1.4,1.1,2.8,1.7,4.2.2.6.5,1.2.7,1.8.2.4,0,.5-.3.6"/>
      <g class="cls-9">
        <g id="Mask_Group_29" data-name="Mask Group 29">
          <path id="Path_61900" data-name="Path 61900" class="cls-4" d="M154.3,63.5h0v.6c0,.4,0,.7,0,1.1,0,.2,0,.3,0,.5h0c0,.3,0,.5,0,.6,0,.2,0,.4,0,.6h0c0,.2,0,.3,0,.5,0,0,0,.1,0,.2,0,.1,0,.3,0,.4,0,.2,0,.4,0,.6,0,.2,0,.3,0,.5,0,.2,0,.4,0,.6,0,.2,0,.3,0,.5,0,0,0,0,0,0,0,.2,0,.3,0,.5s0,.4,0,.5,0,.4,0,.5c0,0,0,0,0,0,0,.2,0,.3,0,.5,0,.2,0,.4,0,.5,0,.2,0,.3,0,.5,0,.4-.1.8-.2,1.2v.4c-.2.6-.3,1.1-.4,1.7,0,.2,0,.3-.1.5-.1.5-.2,1-.3,1.5,0,.1,0,.2,0,.4s0,.2,0,.4c-.2.7-.4,1.4-.6,2.1,0,.1,0,.3-.1.4,0,.2-.1.3-.2.5,0,.2-.1.3-.2.5,0,.2-.1.3-.2.5s-.1.3-.2.5-.1.3-.2.5-.1.3-.2.5-.1.3-.2.5c-.1.3-.2.7-.4,1,0,.2-.1.3-.2.5,0,.2-.1.3-.2.5,0,.2-.1.3-.2.5-.1.3-.3.7-.4,1,0,.1-.1.2-.2.4,0,.1,0,.2-.1.3-.1.3-.2.5-.4.8,0,.2-.1.3-.2.5s-.2.3-.2.5-.2.3-.2.5c-.2.3-.3.6-.5,1,0,.2-.2.3-.3.5,0,.1-.1.3-.2.4,0,.2-.2.3-.3.5s-.2.3-.3.5c0,0,0,.2-.1.2v.2c-.7.9-1.2,1.9-1.8,2.8-.2.3-.4.6-.6.9-.4.6-.8,1.2-1.2,1.8-.2.2-.3.5-.5.7-.4.5-.7,1-1.1,1.5-.2.3-.4.6-.7.9-.2.3-.4.6-.7.8-.5.6-.9,1.1-1.4,1.7-.1.1-.2.3-.4.4s-.2.3-.4.4l-.4.4-.3.3h0c-.1.2-.2.4-.4.5s-.2.3-.4.4c-.4.4-.8.8-1.1,1.2-.1.1-.3.3-.4.4,0,0-.2.2-.2.2s-.2.1-.2.2l-.3.3-.4.4-.4.4h0c-.1,0-.2.2-.3.3-.1.1-.2.2-.3.3s-.2.2-.3.3h-.2c0,.1-.2.4-.2.4,0,0-.2.2-.3.3-.1.1-.3.2-.4.3h-.1c-.1.2-.2.3-.3.4-.3.2-.5.4-.8.6-.1.1-.3.2-.4.3-.5.4-1,.8-1.6,1.2l-.3.2c-.2.1-.3.2-.5.3l-.4.3c0,0-.2.1-.3.2s-.2.1-.3.2c0,0,0,0,0,0-.1,0-.3.2-.4.3,0,0-.1,0-.1.1-.1,0-.2.2-.4.3h0c-.1.1-.2.2-.4.3h-.2c0,.1-.4.3-.4.3h0s-.4.3-.4.3c0,0-.1,0-.1,0-.1,0-.3.2-.4.3-.2.1-.3.2-.5.3s-.3.2-.5.3-.3.2-.5.3-.3.2-.5.3-.3.2-.5.3h0c-.5.3-1,.6-1.5.8-2.7,1.4-5.4,2.6-8.3,3.6h0c-14.4,5.1-30,5-44.4-.1h0c-2.7-1-5.4-2.1-7.9-3.5-.5-.2-.9-.5-1.4-.7,0,0,0,0,0,0h-.2c-.2-.2-.4-.3-.6-.4s-.4-.2-.6-.3l-.3-.2c-.1,0-.2-.1-.3-.2-.9-.6-1.9-1.1-2.8-1.7-.2,0-.3-.2-.4-.3-.2-.2-.5-.3-.7-.5-.2-.1-.3-.2-.5-.3l-.4-.3c-.2-.2-.5-.3-.7-.5h0c-.2-.2-.5-.3-.7-.5s-.5-.4-.7-.5c-.9-.7-1.8-1.4-2.7-2.2-1.2-1-2.3-2.1-3.4-3.1-.1-.1-.2-.2-.3-.3-.2-.2-.4-.4-.6-.7l-.3-.3-.3-.3c-.2-.2-.3-.3-.5-.5s-.3-.3-.5-.5c-.3-.3-.6-.7-.9-1s-.6-.7-.9-1c-.3-.3-.6-.7-.8-1-.2-.2-.4-.5-.6-.7,0-.1-.2-.2-.3-.4-.2-.2-.4-.5-.5-.7l-.3-.4s0,0-.1-.1c0,0-.1-.1-.2-.2l-.2-.3c-5.1-7.2-8.7-15.4-10.6-24,0,0,0,0,0-.1,0-.1,0-.3,0-.4,0-.1,0-.2,0-.4,0-.1,0-.2,0-.3,0-.3-.1-.7-.2-1,0-.1,0-.2,0-.4,0-.2,0-.4-.1-.6,0-.3,0,0,0,0-.9-5.2-1.1-10.5-.7-15.7,0-.2,0-.5,0-.7,0-.4,0-.7.1-1.1,0-.2,0-.5,0-.7s0-.5,0-.7c0-.5.1-.9.2-1.4,0-.2,0-.5.1-.7,0-.4.1-.7.2-1.1,0-.1,0-.2,0-.4,0-.2,0-.5.1-.7s0-.5.1-.7c0-.4.1-.7.2-1.1,0-.1,0-.2,0-.4.2-.7.3-1.4.5-2.1,0,0,0-.1,0-.2s0-.1,0-.2,0,0,0-.1v-.2c0,0,.1-.2.1-.2s0-.2,0-.2c0-.1,0-.3.1-.4h0c0-.1,0-.2,0-.3,2.2-7.3,5.6-14.2,10.2-20.3.3-.5.7-.9,1.1-1.4.3-.4.6-.8,1-1.2h0s.1-.2.1-.2l.3-.3.2-.2c.2-.2.4-.4.6-.6h0c0,0-.3.4-.3.4h0c0,.2-.2.3-.3.4-5.4,6.8-9.3,14.7-11.5,23.1,0,.1,0,.3-.1.4,0,0,0,0,0,.1,0,.2-.1.4-.2.6,0,.2-.1.4-.1.6-2.1,8.9-2.2,18.1-.4,27v.4c.1.1.1.3.2.4,0,.2,0,.3.1.5,0,.1,0,.2,0,.4,0,0,0,.1,0,.1,0,.1,0,.3.1.4,1.8,7.6,5,14.7,9.3,21.1.1.2.3.4.4.6v.2c.2,0,.2.2.3.3,0,.1.2.2.3.4,5.8,8,13.3,14.5,22,19.1h0s0,0,0,0c1,.5,1.9,1,2.9,1.5,17.2,8,37.1,8,54.3,0h0c.9-.4,1.9-.9,2.8-1.4.2,0,.3-.2.5-.3s.3-.2.5-.3h0c.2,0,.3-.2.5-.3s.3-.2.5-.3c.6-.3,1.1-.7,1.7-1,6.5-4,12.2-9.1,16.9-15.1.1-.1.2-.2.3-.4,0,0,0,0,.1-.1.1-.1.2-.3.3-.4.1-.1.2-.3.3-.4,5.3-7.2,9-15.4,10.9-24.1,0-.2,0-.3.1-.5,0-.1,0-.2,0-.3,0,0,0,0,0,0,0-.1,0-.2,0-.3,1.8-9,1.7-18.3-.5-27.2-.1-.5-.2-.9-.4-1.4,0-.2,0-.3-.1-.5-2-7.5-5.4-14.5-9.9-20.8l-.3-.4c-.1-.1-.2-.3-.3-.4,0,0-.1-.2-.2-.2,0-.1-.2-.2-.3-.4-.1-.2-.3-.4-.4-.5,0,0-.1-.2-.2-.3-.1-.2-.3-.4-.4-.5,1.8,2.1,3.5,4.3,5,6.5.5.7.9,1.4,1.3,2.1,0,.1.1.2.2.4.2.4.4.7.6,1.1s.4.7.6,1.1c.1.2.3.5.4.7l.2.4c0,.1.1.2.2.4l.2.4c.2.4.4.7.6,1.1,0,.1.1.3.2.4l.2.3.2.4c0,.1.1.2.2.4.3.7.7,1.5,1,2.2,0,.1.1.2.2.4.1.3.2.5.3.8v.4c.2,0,.2,0,.2,0,0,.2.2.5.3.7.1.4.3.8.4,1.2,0,.1,0,.2.1.3.2.6.4,1.1.6,1.7,0,.1,0,.2.1.4v.4c.2.1.2.3.3.4,0,.2.1.5.2.7,0,.2.1.4.2.6,0,0,0,.1,0,.1,0,.2,0,.4.1.5s0,.4.1.5c0,.2.1.5.2.7,0,.2,0,.3.1.5h0c0,.2,0,.4.1.5,0,.2,0,.4.1.5,0,.1,0,.2,0,.3s0,.2,0,.3c0,0,0,.2,0,.3,0,.3.1.5.2.8,0,.1,0,.3,0,.4,0,.2,0,.5.1.7,0,0,0,.2,0,.3,0,.2,0,.5.1.7,0,.1,0,.2,0,.4,0,.1,0,.2,0,.3,0,.4.1.8.2,1.2,0,.2,0,.5,0,.7v.3c0,.4.1.8.1,1.2,0,.1,0,.2,0,.4v.4c0,.1,0,.2,0,.3s0,.2,0,.3,0,.2,0,.3c0,.2,0,.3,0,.5v.3c0,.2,0,.5,0,.7,0,.1,0,.3,0,.4v.2c0,0,0,.1,0,.2,0,0,0,.2,0,.3s0,.2,0,.3,0,.2,0,.3c0,.2,0,.3,0,.5v.4h0c0,0,0,0,0,0Z"/>
        </g>
      </g>
      <g class="cls-10">
        <g id="Mask_Group_30" data-name="Mask Group 30">
          <path id="Path_61899" data-name="Path 61899" class="cls-4" d="M168.2,60.3v3.5c-.7,31.4-19.9,59.5-49,71.5,0,0,0,0,0,0-.6.2-1.1.5-1.7.7-5.4,2.1-11.1,3.6-16.9,4.5h0c-8,1.2-16.2,1.2-24.3,0h0c-5.7-.9-11.3-2.4-16.7-4.5-.5-.2-1.1-.4-1.6-.6,0,0,0,0,0,0-12.4-5.1-23.3-13.3-31.7-23.8-11.1-13.8-17.2-31-17.3-48.8v-1.2C9,37.5,20.1,14.9,38.9,0,6.7,27.2,2.7,75.2,29.9,107.4c7.4,8.8,16.7,15.8,27.2,20.4h0s0,0,0,0c.5.2,1,.4,1.5.7,5.6,2.4,11.4,4,17.4,5h0c8.2,1.3,16.5,1.3,24.7,0h0c6.1-1,12-2.7,17.7-5.1.5-.2,1.1-.5,1.6-.7,0,0,0,0,0,0h0c38.4-17.2,55.6-62.4,38.4-100.8-4.7-10.4-11.6-19.6-20.2-27,18.4,14.6,29.4,36.7,30,60.3"/>
        </g>
      </g>
      <path id="Path_61902" data-name="Path 61902" class="cls-1" d="M120.3,117.1v.9c0,1,0,2,0,2.9,0,2.3-.1,4.7-.3,6.9-.2,2.5-.5,5-.9,7.5-.8,4.8-2.1,9.5-4.1,14-4.4,9.8-12.3,18.9-26,27.4l-.3.2h-.1c0,0,0,.1,0,.1h-.2c0-.1-.3-.3-.3-.3-13.8-8.5-21.6-17.6-26-27.4-2-4.5-3.4-9.2-4.1-14-.4-2.5-.7-5-.9-7.5-.2-2.3-.3-4.6-.3-6.9,0-1,0-2,0-2.9v-.9h.9c.3,0,.6,0,.9,0,2.4.1,4.9.2,7.3,0,1.6,0,3.2-.2,4.9-.3,6-.8,12.7-2.9,17.2-8l.4-.4.3-.3h0s.2.3.2.3l.4.4c4.6,5.2,11.2,7.3,17.2,8,3.5.4,7,.5,10.6.4.5,0,1.1,0,1.6,0,.3,0,.6,0,.9,0h.9Z"/>
      <path id="Path_61903" data-name="Path 61903" class="cls-6" d="M58.1,118.4c.1,10.1,1.2,21.7,5.2,30.4,2.9,6.3,8.7,13.5,13.9,18.3l-1.1-33.7-17.9-15Z"/>
      <path id="Path_61904" data-name="Path 61904" class="cls-7" d="M76,133.4l1.1,33.7c3.6,3.1,7.4,5.9,11.4,8.4,4-2.5,7.8-5.3,11.4-8.4l.8-33.7h-24.7Z"/>
      <path id="Path_61905" data-name="Path 61905" class="cls-3" d="M118.9,118.3l-18.2,15.1-.8,33.7c5.2-4.7,11-11.9,13.9-18.3,3.9-8.7,5-20.5,5.1-30.5h0Z"/>
      <path id="Path_61906" data-name="Path 61906" class="cls-5" d="M88.5,109.7s-7,10.7-30.4,8.7l17.9,15.1h24.7l18.2-15.1s-21.3,2.8-30.4-8.6h0Z"/>
    </g>
  </g>
</svg>